<?xml version="1.0" encoding="UTF-8"?>
<svg id="Layer_1" xmlns="http://www.w3.org/2000/svg" version="1.1" viewBox="0 0 365.8 72.4">
  <!-- Generator: Adobe Illustrator 29.8.2, SVG Export Plug-In . SVG Version: 2.1.1 Build 3)  -->
  <defs>
    <style>
      .st0 {
        fill: #fff;
      }
    </style>
  </defs>
  <path class="st0" d="M215.6,25.3c-1.1-.8-2.3-1.3-3.5-1.6-1.3-.3-2.5-.5-3.7-.5s-3.1.2-4.6.7c-1.5.5-2.9,1.2-4.1,2.2-1.2,1-2.2,2.3-2.8,4l3.5,1.2c.4-.9.9-1.6,1.6-2.4s1.6-1.3,2.7-1.7c1.1-.4,2.4-.7,3.8-.7s2.8.3,3.9.8c1.1.5,1.9,1.3,2.4,2.3.6,1,.8,2.2.8,3.5v.7c0,.8-.3,1.3-.9,1.7-.6.3-1.5.6-2.7.7-1.2.2-2.6.3-4.3.6-1.7.2-3.3.5-4.7.9-1.4.4-2.7.9-3.7,1.6-1.1.7-1.9,1.5-2.4,2.5-.6,1-.8,2.3-.8,3.8s.5,3.6,1.3,5c.9,1.4,2.1,2.4,3.6,3.1s3.2,1.1,5.1,1.1,3.1-.3,4.3-.8c1.2-.5,2.3-1.2,3.1-2.1s1.5-1.7,1.9-2.7h.3v4.8h3.6v-20.7c0-2-.3-3.7-1-5-.7-1.3-1.6-2.4-2.6-3.1ZM215.5,42.4c0,1.7-.4,3.2-1.1,4.6s-1.8,2.5-3.2,3.3c-1.4.8-3,1.2-4.8,1.2s-2.5-.2-3.5-.7c-1-.5-1.9-1.1-2.5-2-.6-.9-.9-1.9-.9-3.1s.3-2.2.9-3c.6-.8,1.5-1.4,2.8-1.9,1.2-.5,2.7-.8,4.3-1,.6,0,1.3-.2,2.1-.3.8-.1,1.6-.2,2.4-.4.8-.1,1.5-.3,2.1-.5.6-.2,1.1-.4,1.3-.7v4.3Z"/>
  <rect class="st0" x="286.2" y="23.7" width="3.7" height="30.5"/>
  <path class="st0" d="M288.1,12.8c-.7,0-1.4.2-1.9.8s-.8,1.1-.8,1.8.3,1.3.8,1.8,1.2.8,1.9.8,1.4-.3,1.9-.8c.5-.5.8-1.1.8-1.8s-.3-1.3-.8-1.8c-.5-.5-1.2-.8-1.9-.8Z"/>
  <path class="st0" d="M312.6,42.8c-.6,1.7-1.2,3.4-1.7,5.1-.3,1-.6,2-.9,2.9-.3-1-.6-1.9-.9-2.9-.5-1.7-1.1-3.4-1.7-5.1l-7-19.2h-4l11.6,30.5h4l11.6-30.5h-4l-7,19.2Z"/>
  <path class="st0" d="M183.9,24.3c-1.4-.8-3-1.2-4.9-1.2s-3.1.3-4.5.9c-1.4.6-2.5,1.5-3.5,2.6-.7.9-1.3,1.8-1.6,2.9-.5-1.8-1.3-3.3-2.5-4.4-1.4-1.4-3.3-2.1-5.5-2.1s-2.6.3-3.8.8c-1.2.5-2.3,1.4-3.3,2.5-.7.8-1.2,1.8-1.6,2.9v-5.6h-3.6v12.2l3.7,11v-12.3c0-1.7.3-3.1,1-4.3.7-1.2,1.6-2.1,2.8-2.7,1.1-.6,2.4-1,3.8-1,1.9,0,3.5.6,4.8,1.8s1.8,2.9,1.8,5v20.7h3.7v-20.1c0-1.5.3-2.8.9-4s1.5-2,2.6-2.6c1.1-.6,2.4-.9,3.8-.9s3.5.6,4.8,1.7c1.3,1.2,2,3,2,5.4v20.4h3.7v-20.5c0-2.3-.4-4.2-1.2-5.8-.8-1.6-2-2.7-3.4-3.5Z"/>
  <path class="st0" d="M122.7,24.4c-1.5-.8-3.1-1.2-5-1.2s-3,.3-4.4.9c-1.4.6-2.6,1.5-3.7,2.8-.7.9-1.3,1.9-1.7,3.1-.6-2.1-1.5-3.7-2.5-4.8-1.3-1.4-3.1-2.1-5.3-2.1s-2.7.3-3.9.8c-1.2.6-2.3,1.4-3.2,2.6-.6.8-1.2,1.8-1.6,2.9l-.3-5.9h-7.6v30.5h8.2v-18.4c0-1.2.2-2.2.7-3.1s1.1-1.5,1.8-1.9,1.6-.7,2.6-.7c1.4,0,2.5.4,3.4,1.3.9.9,1.3,2.1,1.3,3.6v19.2h7.9v-18.8c0-1.1.2-2,.6-2.8s1-1.4,1.7-1.9c.8-.4,1.6-.7,2.7-.7s2.5.4,3.4,1.3c.9.8,1.4,2.1,1.4,3.8v19h8.2v-20.6c0-2.2-.4-4.1-1.3-5.6-.8-1.5-2-2.7-3.5-3.5Z"/>
  <rect class="st0" x="134.4" y="23.7" width="8.2" height="30.5"/>
  <rect class="st0" x="134.4" y="11.4" width="8.2" height="8.2" rx="2.5" ry="2.5"/>
  <path class="st0" d="M40.9,34.7c-1.1-1-2.4-1.8-3.9-2.4s-3.1-1.2-4.8-1.6l-3.7-.9c-1.1-.3-2.2-.6-3.2-1-1-.4-1.8-.9-2.4-1.6-.6-.7-.9-1.5-.9-2.5s.3-1.7.8-2.4c.5-.7,1.3-1.3,2.3-1.7,1-.4,2.2-.6,3.6-.6,2.1,0,3.7.4,5,1.3,1.2.9,1.9,2.1,2.1,3.8l7.7-2.6c-.3-1.3-.8-2.6-1.6-3.7-1.3-1.8-3-3.3-5.2-4.3-2.2-1-4.9-1.5-7.9-1.5s-5.6.5-7.9,1.5c-2.3,1-4.1,2.4-5.4,4.3-1.3,1.8-2,4-2,6.4s1,5.3,2.9,7.1c1.9,1.8,4.6,3.1,8.1,3.9l4.5,1.1c1.5.3,2.8.7,3.8,1.2s1.8,1,2.4,1.6c.6.6.8,1.4.8,2.3s-.3,1.9-.9,2.7c-.6.8-1.5,1.4-2.6,1.8-1.1.4-2.4.6-3.9.6s-2.8-.2-4-.7-2.1-1.1-2.8-2.1c-.7-.9-1.1-2.1-1.2-3.4l-7.8,2.7c.3,1.7.9,3.3,1.9,4.6,1.3,2,3.2,3.4,5.6,4.4,2.4,1,5.2,1.5,8.5,1.5s6.1-.5,8.5-1.5,4.1-2.4,5.4-4.2c1.2-1.8,1.9-4,1.9-6.4s-.3-3.2-.9-4.5c-.6-1.3-1.5-2.4-2.6-3.4Z"/>
  <path class="st0" d="M73.7,27.1c-1.3-1.3-2.8-2.2-4.6-2.9s-3.6-1-5.6-1c-3,0-5.5.7-7.7,2-2.2,1.3-3.9,3.2-5.1,5.5-1.2,2.4-1.8,5.1-1.8,8.3s.6,6,1.8,8.3c1.2,2.3,2.9,4.2,5.2,5.4,2.3,1.3,4.9,1.9,8,1.9s4.5-.3,6.3-1c1.8-.7,3.3-1.7,4.6-2.9.9-1,1.6-2,2.1-3.3l-7.1-2.4c-.3.7-.7,1.3-1.2,1.8-.6.5-1.2.9-2,1.2-.8.3-1.7.4-2.6.4-1.4,0-2.7-.3-3.7-.9-1.1-.6-1.9-1.5-2.5-2.7-.5-1.1-.8-2.4-.9-4h20.8v-2.3c0-2.6-.4-4.9-1.1-6.8-.7-1.9-1.8-3.5-3.1-4.8ZM57.1,35.9c0-1,.3-2,.7-2.8.5-1.1,1.3-2,2.2-2.7,1-.7,2.2-1,3.6-1s2.6.3,3.5,1c1,.6,1.7,1.6,2.2,2.7.3.8.5,1.7.7,2.8h-12.9Z"/>
  <path class="st0" d="M353.9,38.4c0-2.6-.4-4.8-1.1-6.7-.7-1.9-1.7-3.5-2.9-4.7-1.2-1.2-2.6-2.2-4.2-2.8-1.5-.6-3.2-.9-4.8-.9-2.7,0-5,.7-7,2-2,1.4-3.6,3.2-4.7,5.6-1.1,2.4-1.7,5.1-1.7,8.2s.6,5.8,1.7,8.2c1.1,2.4,2.7,4.2,4.8,5.5,2.1,1.3,4.5,2,7.4,2s3.9-.3,5.5-1,2.9-1.5,3.9-2.6c1-1.1,1.7-2.2,2.2-3.4l-3.5-1.2c-.4.9-.9,1.7-1.6,2.4-.7.8-1.6,1.4-2.7,1.8-1.1.5-2.3.7-3.7.7-2.1,0-3.9-.5-5.4-1.5-1.5-1-2.7-2.4-3.6-4.2-.8-1.7-1.2-3.6-1.2-5.8h22.6v-1.6ZM331.3,36.8c0-1.7.5-3.2,1.2-4.7.8-1.7,1.9-3,3.4-4,1.4-1,3.1-1.5,5.1-1.5s3.6.5,5,1.5c1.4,1,2.4,2.4,3.2,4.1.6,1.4,1,3,1.1,4.7h-18.9Z"/>
  <path class="st0" d="M241.9,37.8l-4.7-1.1c-1.9-.5-3.2-1.1-4.1-1.9-.9-.8-1.3-1.9-1.3-3.2s.7-2.8,2-3.7c1.3-1,3-1.4,5-1.4s3.5.5,4.6,1.4c1.1.9,1.9,2.1,2.3,3.5l3.3-1.1c-.5-1.4-1.1-2.6-1.9-3.6-.9-1.1-2-1.9-3.4-2.5-1.4-.6-3-.9-5-.9s-3.9.4-5.5,1.1c-1.6.7-2.9,1.7-3.8,3s-1.4,2.8-1.4,4.5.6,3.8,1.9,5.1c1.3,1.4,3.3,2.3,5.9,3l5,1.2c1.7.4,2.9,1,3.7,1.8.8.8,1.2,1.8,1.2,3.1s-.7,2.8-2.1,3.9c-1.4,1-3.2,1.6-5.5,1.6s-3.7-.4-5-1.3c-1.3-.9-2.1-2.2-2.6-4l-3.5,1.1c.4,1.5,1,2.9,1.9,4,1,1.2,2.3,2.1,3.8,2.7,1.5.6,3.3.9,5.3.9s4.2-.4,5.9-1.1c1.7-.8,3.1-1.8,4-3.2s1.4-2.9,1.4-4.6-.6-3.7-1.9-5-3.2-2.3-5.8-3Z"/>
  <path class="st0" d="M270.7,37.8l-4.7-1.1c-1.9-.5-3.2-1.1-4.1-1.9-.9-.8-1.3-1.9-1.3-3.2s.7-2.8,2-3.7c1.3-1,3-1.4,5-1.4s3.5.5,4.6,1.4c1.1.9,1.9,2.1,2.4,3.5h.6c0-.1,2.7-1.1,2.7-1.1-.5-1.4-1.1-2.6-2-3.6-.9-1.1-2-1.9-3.4-2.5-1.4-.6-3-.9-5-.9s-3.9.4-5.5,1.1c-1.6.7-2.9,1.7-3.8,3s-1.4,2.8-1.4,4.5.6,3.8,1.9,5.1c1.3,1.4,3.3,2.3,5.9,3l5,1.2c1.7.4,2.9,1,3.7,1.8.8.8,1.2,1.8,1.2,3.1s-.7,2.8-2.1,3.9c-1.4,1-3.2,1.6-5.5,1.6s-3.7-.4-5-1.3c-1.3-.9-2.1-2.2-2.6-4.1l-3.5,1.1c.4,1.6,1,2.9,2,4,1,1.2,2.3,2.1,3.8,2.7,1.5.6,3.3.9,5.3.9s4.2-.4,5.9-1.1c1.7-.8,3.1-1.8,4-3.2s1.4-2.9,1.4-4.6-.6-3.7-1.9-5-3.2-2.3-5.8-3Z"/>
</svg>